# xmcd CD database file
#
# Track frame offsets:
#	150
#	13025
#	29897
#	42640
#	50855
#	70907
#	84032
#	97740
#	111210
#	127530
#	142305
#	152102
#
# Disc length: 2198 seconds
#
# Revision: 0
# Processed by: cddbd v1.5PL3 Copyright (c) Steve Scherf et al.
# Submitted via: cdripper 1.0.7
#
DISCID=a208940c
DTITLE=Davis Coen - Blues from the Get-Go
DYEAR=2000
DGENRE=Blues
TTITLE0=Some Strange Feelin'
TTITLE1=Mermaid Blues
TTITLE2=Rockin' Chair 
TTITLE3=Back to Your Old Tricks Again
TTITLE4=Ozone Park Cemetery
TTITLE5=Ash Hauler
TTITLE6=D.E.A. Blues 
TTITLE7=Precious Time Blues 
TTITLE8=The Chin
TTITLE9=Blues from the Get-Go
TTITLE10=Ways of These Women
TTITLE11=Pimpin Ain't Easy Baby
EXTD=YEAR: 2000
EXTT0=
EXTT1=
EXTT2=
EXTT3=
EXTT4=
EXTT5=
EXTT6=
EXTT7=
EXTT8=
EXTT9=
EXTT10=
EXTT11=
PLAYORDER=
